<svg width="84" height="84" viewBox="0 0 84 84" fill="none" xmlns="http://www.w3.org/2000/svg">
<g filter="url(#filter0_d_1_3790)">
<rect x="20" y="14" width="44" height="44" rx="22" fill="white"/>
<g clip-path="url(#clip0_1_3790)">
<path d="M34 34.5C33.17 34.5 32.5 35.17 32.5 36C32.5 36.83 33.17 37.5 34 37.5C34.83 37.5 35.5 36.83 35.5 36C35.5 35.17 34.83 34.5 34 34.5ZM34 28.5C33.17 28.5 32.5 29.17 32.5 30C32.5 30.83 33.17 31.5 34 31.5C34.83 31.5 35.5 30.83 35.5 30C35.5 29.17 34.83 28.5 34 28.5ZM34 40.5C33.17 40.5 32.5 41.18 32.5 42C32.5 42.82 33.18 43.5 34 43.5C34.82 43.5 35.5 42.82 35.5 42C35.5 41.18 34.83 40.5 34 40.5ZM37 43H51V41H37V43ZM37 37H51V35H37V37ZM37 29V31H51V29H37Z" fill="#9D9D9D"/>
</g>
</g>
<defs>
<filter id="filter0_d_1_3790" x="0" y="0" width="84" height="84" filterUnits="userSpaceOnUse" color-interpolation-filters="sRGB">
<feFlood flood-opacity="0" result="BackgroundImageFix"/>
<feColorMatrix in="SourceAlpha" type="matrix" values="0 0 0 0 0 0 0 0 0 0 0 0 0 0 0 0 0 0 127 0" result="hardAlpha"/>
<feOffset dy="6"/>
<feGaussianBlur stdDeviation="10"/>
<feColorMatrix type="matrix" values="0 0 0 0 0.027451 0 0 0 0 0.0235294 0 0 0 0 0.0235294 0 0 0 0.08 0"/>
<feBlend mode="normal" in2="BackgroundImageFix" result="effect1_dropShadow_1_3790"/>
<feBlend mode="normal" in="SourceGraphic" in2="effect1_dropShadow_1_3790" result="shape"/>
</filter>
<clipPath id="clip0_1_3790">
<rect width="24" height="24" fill="white" transform="translate(30 24)"/>
</clipPath>
</defs>
</svg>
