<svg width="24" height="26" viewBox="0 0 24 26" fill="none" xmlns="http://www.w3.org/2000/svg">
<path d="M6 2.6582L3 6.76351V21.1321C3 21.6765 3.21071 22.1986 3.58579 22.5836C3.96086 22.9685 4.46957 23.1848 5 23.1848H19C19.5304 23.1848 20.0391 22.9685 20.4142 22.5836C20.7893 22.1986 21 21.6765 21 21.1321V6.76351L18 2.6582H6Z" stroke="#43B028" stroke-width="2" stroke-linecap="round" stroke-linejoin="round"/>
<path d="M3 6.76367H21" stroke="#43B028" stroke-width="2" stroke-linecap="round" stroke-linejoin="round"/>
<path d="M16 10.8687C16 11.9574 15.5786 13.0017 14.8284 13.7715C14.0783 14.5414 13.0609 14.974 12 14.974C10.9391 14.974 9.92172 14.5414 9.17157 13.7715C8.42143 13.0017 8 11.9574 8 10.8687" stroke="#43B028" stroke-width="2" stroke-linecap="round" stroke-linejoin="round"/>
</svg>
