<svg width="22" height="22" viewBox="0 0 22 22" fill="none" xmlns="http://www.w3.org/2000/svg">
<path d="M21.9599 5.25173L20.3885 0.537447C20.2816 0.216424 19.9812 -9.20465e-05 19.6429 2.93558e-08H2.35714C2.01881 -9.20465e-05 1.71841 0.216424 1.61151 0.537447L0.040053 5.25173C0.015837 5.32511 0.0023019 5.40158 0 5.47879C0 5.48666 0 5.49214 0 5.50001V6.28574C0.00285435 7.51679 0.585004 8.67474 1.57141 9.4113C1.57141 9.41761 1.57141 9.4223 1.57141 9.42857V19.6429C1.57141 20.9447 2.62674 22 3.92855 22H18.0714C19.3732 22 20.4285 20.9447 20.4285 19.6429V9.42857C20.4285 9.42226 20.4285 9.41756 20.4285 9.4113C21.415 8.67474 21.9971 7.51679 22 6.28574V5.50001C22 5.49214 22 5.48666 22 5.47879C21.9977 5.40154 21.9842 5.32507 21.9599 5.25173ZM16.5 1.57141H19.0764L20.1245 4.71428H16.5V1.57141ZM11.7857 1.57141H14.9286V4.71428H11.7857V1.57141ZM7.07142 1.57141H10.2143V4.71428H7.07142V1.57141ZM2.92364 1.57141H5.50001V4.71428H1.87549L2.92364 1.57141ZM12.5714 20.4285H9.42857V14.1428H12.5714V20.4285ZM18.8571 19.6429C18.8571 20.0768 18.5054 20.4286 18.0714 20.4286H14.1428V13.3572C14.1428 12.9232 13.7911 12.5714 13.3571 12.5714H8.64284C8.20888 12.5714 7.85711 12.9232 7.85711 13.3572V20.4286H3.92855C3.4946 20.4286 3.14282 20.0768 3.14282 19.6429V10.1357C4.24548 10.3621 5.3921 10.0989 6.2857 9.41443C7.68829 10.4446 9.59739 10.4446 11 9.41443C12.4026 10.4446 14.3117 10.4446 15.7143 9.41443C16.6079 10.099 17.7545 10.3621 18.8571 10.1357V19.6429ZM18.0714 8.64284C17.3919 8.64242 16.7467 8.34437 16.3059 7.82727C16.0204 7.50054 15.524 7.46712 15.1973 7.75265C15.1707 7.7758 15.1458 7.80076 15.1226 7.82727C14.249 8.80236 12.7503 8.88453 11.7753 8.01092C11.7108 7.9531 11.6494 7.89182 11.5916 7.82727C11.2841 7.50054 10.77 7.48489 10.4432 7.79242C10.4312 7.8037 10.4196 7.8153 10.4083 7.82727C9.53473 8.80236 8.03606 8.88453 7.06097 8.01092C6.99643 7.9531 6.93515 7.89182 6.87733 7.82727C6.56984 7.50054 6.05564 7.48489 5.72891 7.79242C5.71694 7.8037 5.70529 7.8153 5.69406 7.82727C5.25325 8.34437 4.60807 8.64242 3.92855 8.64284C2.62674 8.64284 1.57141 7.58751 1.57141 6.28569H20.4285C20.4285 7.58751 19.3732 8.64284 18.0714 8.64284Z" fill="#43B028"/>
</svg>
